<svg width="197" height="60" viewBox="0 0 197 60" fill="none" xmlns="http://www.w3.org/2000/svg">
<path d="M45.8427 0L0 60H27.7903L45.9176 36.1049L65.0187 60H91.8352L45.8427 0ZM45.8427 4.34457L86.5169 57.3034H77.0037L45.9176 17.4532L15.3558 57.3034H5.39326L45.8427 4.34457ZM45.9176 31.6854L26.5169 57.3034H18.6517L45.9176 21.7978L73.633 57.3034H66.367L45.9176 31.6854ZM46.1423 45.6929L55.1311 59.2509H37.1536L46.1423 45.6929Z" fill="#637F60"/>
<path d="M123.519 7.26598V24.4195H121.047V22.6218H104.568V24.869H102.096V6.44201H104.568C105.317 6.59183 105.317 6.89145 104.568 7.26598V20.2997H111.459V1.94763H113.931C114.68 2.17235 114.68 2.39707 113.931 2.7716V20.3746H121.122V6.44201H123.369C124.118 6.74164 124.118 6.89145 123.519 7.26598Z" fill="#637F60"/>
<path d="M158.5 23.6705C158.5 24.794 157.976 25.4682 156.852 25.4682H154.081L153.631 23.3708H155.879C156.103 23.3708 156.328 23.1461 156.328 22.9214V19.251H142.995C142.695 22.0225 141.047 24.5693 138.575 25.9176L137.227 23.8203C139.699 22.5469 141.122 19.9251 140.972 17.1536V9.36333C139.998 10.412 138.95 11.236 137.676 11.8352L136.553 9.73787C140.073 7.71539 142.77 4.49442 144.118 0.674194L146.44 1.19854C146.74 1.49816 146.59 1.72288 145.991 1.72288L145.616 2.69667H152.658L153.182 2.02251L155.279 3.22101C155.579 3.67045 155.429 3.74536 154.755 3.89517L151.459 7.64049H158.35L158.5 23.6705ZM151.609 4.49442H144.942C144.268 5.61801 143.594 6.6667 142.695 7.64049H148.987L151.609 4.49442ZM148.613 9.36333H143.219V12.5094H148.613V9.36333ZM148.613 14.3072H143.219V17.603H148.613V14.3072ZM150.785 9.36333V12.5094H156.403V9.36333H150.785ZM150.785 14.3072V17.603H156.403V14.3072H150.785Z" fill="#637F60"/>
<path d="M178.95 25.5431H176.703V14.1573C175.729 15.1311 174.68 16.0299 173.557 16.779L172.059 14.5318C175.28 12.5843 177.976 9.88762 179.924 6.66665L181.722 8.01496C182.096 8.4644 182.021 8.68912 181.422 8.53931L178.95 11.8352V25.5431ZM174.306 9.21346L173.032 7.2659C175.429 5.76777 177.452 3.82021 178.95 1.49811L180.598 2.99624C181.047 3.44567 180.898 3.52058 180.448 3.52058C178.725 5.76777 176.628 7.64043 174.306 9.21346ZM181.871 11.8352V9.88762H196.703V11.8352H192.283V22.9213C192.283 24.4195 191.759 25.1685 190.486 25.1685H187.639L187.265 23.221H189.886C190.111 23.221 190.261 23.0711 190.336 22.8464V11.9101L181.871 11.8352ZM194.605 2.92133V4.86889H182.92V2.92133H194.605Z" fill="#637F60"/>
<path d="M109.137 52.2098V53.4083C109.062 53.7828 108.987 54.2322 108.987 54.6817C108.987 54.9813 108.987 55.1311 108.838 55.206L108.388 55.5056C107.265 56.1798 105.916 56.5543 104.568 56.4794C101.946 56.4794 100.748 55.5056 100.748 53.4083V50.7865C100.823 49.8877 100.898 49.0637 100.898 48.1648C100.898 47.7903 100.598 47.4907 100.223 47.4907H99.8488C99.5492 47.4907 99.3994 47.3408 99.3994 47.191V44.1948C99.3994 43.8951 99.699 43.8951 100.223 43.7453H100.748V40.4495C100.748 39.3259 100.748 38.8015 101.047 38.8015L102.021 39.1011H103.145L105.242 39.4008C105.542 39.4008 105.692 39.5506 105.692 39.7004C105.692 39.8502 105.542 40.5244 105.542 41.1985C105.542 41.8727 105.392 42.5468 105.392 42.8465C105.392 43.1461 105.542 43.5206 105.766 43.5206H108.613C108.763 43.5206 108.913 43.5206 108.913 43.6704V44.6442C108.838 44.9438 108.763 45.1686 108.763 45.4682V47.4157C108.763 47.7154 108.613 47.7154 108.313 47.7154H105.542C105.392 47.7154 105.392 47.8652 105.392 48.2397V50.1873C105.392 51.0113 105.392 51.3858 105.692 51.6854C105.991 52.1348 106.516 52.4345 107.04 52.3596L108.014 52.0599H108.838C109.137 51.985 109.137 52.0599 109.137 52.2098Z" fill="#637F60"/>
<path d="M119.475 47.8652C119.475 48.3146 119.325 48.3895 118.95 48.3895H117.452C116.778 48.3895 116.179 48.3895 115.954 48.6891C115.654 49.0637 115.504 49.588 115.504 50.0374C115.504 50.6367 115.579 51.2359 115.654 51.8352V55.955C115.654 56.1049 115.504 56.2547 115.205 56.2547H111.235C111.01 56.2547 110.86 56.1049 110.86 55.8801V49.4382C110.935 47.7153 110.71 45.9176 110.336 44.1947C110.336 44.0449 110.336 43.8951 110.486 43.8951L112.733 43.5955L114.98 43.1461C115.13 43.1461 115.28 43.4457 115.28 43.97C115.28 44.4944 115.43 44.794 115.579 44.794L116.703 44.1198C117.452 43.6704 118.276 43.3708 119.175 43.4457C119.624 43.4457 119.849 43.5955 119.849 43.7453V44.8689C119.774 45.2434 119.699 45.618 119.699 45.9925L119.475 47.8652Z" fill="#637F60"/>
<path d="M126.066 50.0374V55.955C126.066 56.1049 126.066 56.2547 125.766 56.2547H121.346V53.1086C121.421 52.1348 121.496 51.161 121.496 50.2622C121.496 47.7903 121.346 45.6929 121.197 44.1947C121.197 44.1198 121.122 43.97 121.047 43.8951C121.047 43.7453 121.197 43.5955 121.496 43.5955H126.141C126.29 43.5955 126.44 43.7453 126.44 43.8951V44.1947C126.215 45.7678 126.066 47.8652 126.066 50.0374ZM126.29 40.1498C126.29 41.6479 125.466 42.4719 123.669 42.4719C122.994 42.4719 122.395 42.2472 121.871 41.7977C121.347 41.4232 121.047 40.824 121.047 40.1498C121.047 39.4756 121.347 38.8015 121.871 38.3521C122.395 37.9775 122.994 37.7528 123.669 37.8277C124.343 37.7528 124.942 37.9775 125.466 38.3521C125.991 38.8015 126.29 39.4756 126.29 40.1498Z" fill="#637F60"/>
<path d="M142.097 49.5131C142.097 50.5618 142.097 51.7603 142.247 52.6592C142.247 54.0075 142.396 54.9813 142.396 55.7303C142.396 56.03 142.172 56.2547 141.872 56.2547H138.052C137.902 56.2547 137.752 55.955 137.752 55.4307C137.752 54.9064 137.602 54.7565 137.453 54.7565H137.153C136.404 55.7303 135.205 56.2547 134.007 56.2547C132.284 56.2547 130.636 55.5056 129.587 54.1573C128.614 52.8839 128.089 51.3109 128.089 49.7378C128.014 47.8652 128.614 46.0674 129.737 44.6442C131.011 43.2959 132.808 42.5468 134.681 42.6217C135.954 42.5468 137.153 43.1461 137.977 44.1198C138.127 44.1198 138.277 43.97 138.277 43.5955C138.277 43.2959 138.426 42.9962 138.726 42.9213L140.674 43.221L142.621 43.6704V44.1947C142.172 45.9176 142.097 47.7153 142.097 49.5131ZM137.677 49.6629C137.752 48.9138 137.527 48.2397 137.003 47.7153C136.479 47.2659 135.88 47.0412 135.205 47.0412C134.531 47.0412 133.782 47.2659 133.258 47.7153C132.733 48.2397 132.509 48.9138 132.584 49.6629C132.584 50.3371 132.808 50.9363 133.258 51.4607C133.707 51.985 134.456 52.3595 135.205 52.2846C135.88 52.2846 136.479 52.0599 137.003 51.6105C137.527 51.0112 137.752 50.3371 137.677 49.6629Z" fill="#637F60"/>
<path d="M158.051 55.8052C158.051 56.03 157.901 56.1798 157.677 56.1798H153.707C153.482 56.1798 153.257 55.8802 153.257 55.6554V53.7079C153.332 53.0337 153.407 52.4345 153.407 51.7603C153.407 51.236 153.332 50.7116 153.257 50.2622V48.9139C153.257 47.6405 152.733 46.9663 151.759 46.9663C151.31 46.9663 150.86 47.191 150.486 47.4906C150.111 47.6405 149.812 48.015 149.662 48.4644V55.7303C149.662 55.9551 149.512 56.1049 149.287 56.1049H145.317C145.092 56.1049 144.943 55.9551 144.868 55.7303C144.868 54.6816 144.868 53.633 145.018 52.5843V49.4382C145.018 47.7154 144.868 45.9176 144.493 44.1948V43.8951C144.493 43.7453 144.493 43.5955 144.643 43.5955L146.89 43.2959L149.212 42.8464C149.362 42.8464 149.362 43.1461 149.512 43.8202C149.512 44.1199 149.587 44.3446 149.662 44.6442L151.16 43.6704C151.984 43.221 152.958 42.9213 153.931 42.8464C154.98 42.7715 155.954 42.9963 156.853 43.5206C157.677 44.1198 158.126 45.0936 158.051 46.1423V55.6554V55.8052Z" fill="#637F60"/>
<path d="M180.599 52.809C180.748 54.7566 180.224 56.779 178.951 58.2772C177.378 59.5506 175.43 60.1498 173.483 59.9251L170.336 59.4757C168.689 59.176 167.865 58.9513 167.865 58.5019C168.014 57.603 168.239 56.6292 168.539 55.7303C168.539 55.5805 168.614 55.4307 168.763 55.4307H168.913C170.112 56.1049 171.385 56.4794 172.733 56.5543C173.408 56.4794 174.082 56.2547 174.681 56.03C175.355 55.6554 175.805 55.206 175.805 54.5318V53.7079C174.831 54.5318 173.557 54.9813 172.209 54.9813C170.636 55.0562 169.138 54.382 168.089 53.2584C167.115 52.0599 166.591 50.5618 166.591 48.9888C166.441 47.4157 167.041 45.8427 168.089 44.7191C169.063 43.4457 170.636 42.7715 172.209 42.9214C173.408 42.9214 174.531 43.4457 175.205 44.4195L175.505 44.7191C175.655 44.7191 175.655 44.5693 175.655 44.1948C175.655 43.8202 175.805 43.221 175.954 43.221H178.277L180.524 43.5206C180.674 43.5206 180.674 43.6704 180.674 43.8202V46.6667C180.674 47.7903 180.524 48.7641 180.524 49.4382C180.524 50.1124 180.674 50.2622 180.674 51.0862L180.599 52.809ZM175.954 49.0637C175.954 48.3895 175.73 47.7903 175.28 47.2659C174.831 46.8165 174.232 46.5918 173.632 46.5918C173.033 46.6667 172.434 46.8914 171.984 47.2659C171.61 47.7903 171.385 48.3895 171.46 49.0637C171.385 50.2622 172.359 51.3109 173.557 51.3858C174.232 51.4607 174.831 51.1611 175.28 50.7116C175.655 50.2622 175.954 49.6629 175.954 49.0637Z" fill="#637F60"/>
<path d="M195.73 49.6629C195.804 51.4607 195.205 53.2584 193.932 54.6067C192.583 55.8801 190.786 56.6292 188.988 56.5543C187.19 56.5543 185.467 55.8801 184.194 54.6067C182.846 53.4082 182.172 51.6105 182.321 49.8127C182.246 47.9401 182.846 46.1423 184.119 44.7191C186.891 42.0974 191.235 42.0974 194.007 44.7191C195.205 45.9925 195.804 47.7903 195.73 49.6629ZM191.31 49.6629C191.31 48.9888 191.16 48.3146 190.786 47.7154C190.336 47.191 189.662 46.9663 188.988 47.0412C188.314 47.0412 187.715 47.3408 187.34 47.8652C186.816 48.3146 186.591 48.9888 186.666 49.6629C186.591 50.3371 186.891 51.0861 187.34 51.6105C187.715 52.1348 188.314 52.4345 188.988 52.4345C189.662 52.4345 190.336 52.1348 190.786 51.6105C191.16 51.0112 191.31 50.3371 191.31 49.6629Z" fill="#637F60"/>
</svg>
